<svg width="170" height="70" viewBox="0 0 170 70" fill="none" xmlns="http://www.w3.org/2000/svg">
<rect x="1.5" y="1.5" width="167" height="67" fill="white" stroke="black" stroke-width="3"/>
<path d="M21.32 49V19H28.72C30.7867 19 32.4333 19.64 33.66 20.92C34.9 22.2 35.52 23.8933 35.52 26V29.5C35.52 31.5933 34.9 33.2867 33.66 34.58C32.4333 35.86 30.7867 36.5 28.72 36.5H25.12V49H21.32ZM25.12 32.7H28.72C29.64 32.7 30.3667 32.4067 30.9 31.82C31.4467 31.2333 31.72 30.46 31.72 29.5V26C31.72 25.04 31.4467 24.2667 30.9 23.68C30.3667 23.0933 29.64 22.8 28.72 22.8H25.12V32.7ZM54.4653 19V42.24C54.4653 44.4533 53.812 46.24 52.5053 47.6C51.1986 48.96 49.452 49.64 47.2653 49.64C45.092 49.64 43.3453 48.96 42.0253 47.6C40.7186 46.24 40.0653 44.4533 40.0653 42.24V19H43.8653V42.24C43.8653 43.32 44.172 44.1933 44.7853 44.86C45.3986 45.5133 46.2253 45.84 47.2653 45.84C48.3053 45.84 49.132 45.5133 49.7453 44.86C50.3586 44.1933 50.6653 43.32 50.6653 42.24V19H54.4653ZM60.8903 49V19H68.2903C70.357 19 72.0036 19.64 73.2303 20.92C74.4703 22.2 75.0903 23.8933 75.0903 26V30.3C75.0903 31.6867 74.8036 32.9133 74.2303 33.98C73.6703 35.0333 72.8703 35.86 71.8303 36.46L71.6103 35.28C72.717 35.6933 73.5703 36.3333 74.1703 37.2C74.7836 38.0667 75.0903 39.1 75.0903 40.3V49H71.2903V40.3C71.2903 39.3933 71.017 38.6667 70.4703 38.12C69.937 37.5733 69.2103 37.3 68.2903 37.3H64.6903V49H60.8903ZM64.6903 33.5H68.2903C69.2103 33.5 69.937 33.2067 70.4703 32.62C71.017 32.0333 71.2903 31.26 71.2903 30.3V26C71.2903 25.04 71.017 24.2667 70.4703 23.68C69.937 23.0933 69.2103 22.8 68.2903 22.8H64.6903V33.5ZM81.2419 49V19H88.6419C90.7085 19 92.3552 19.64 93.5819 20.92C94.8219 22.2 95.4419 23.8933 95.4419 26V29.5C95.4419 31.5933 94.8219 33.2867 93.5819 34.58C92.3552 35.86 90.7085 36.5 88.6419 36.5H85.0419V49H81.2419ZM85.0419 32.7H88.6419C89.5619 32.7 90.2885 32.4067 90.8219 31.82C91.3685 31.2333 91.6419 30.46 91.6419 29.5V26C91.6419 25.04 91.3685 24.2667 90.8219 23.68C90.2885 23.0933 89.5619 22.8 88.6419 22.8H85.0419V32.7ZM106.947 49.64C104.774 49.64 103.027 48.96 101.707 47.6C100.401 46.24 99.7472 44.4533 99.7472 42.24V25.76C99.7472 23.5333 100.401 21.7467 101.707 20.4C103.027 19.04 104.774 18.36 106.947 18.36C109.134 18.36 110.881 19.04 112.187 20.4C113.494 21.7467 114.147 23.5333 114.147 25.76V42.24C114.147 44.4533 113.494 46.24 112.187 47.6C110.881 48.96 109.134 49.64 106.947 49.64ZM106.947 45.84C107.987 45.84 108.814 45.5133 109.427 44.86C110.041 44.1933 110.347 43.32 110.347 42.24V25.76C110.347 24.68 110.041 23.8133 109.427 23.16C108.814 22.4933 107.987 22.16 106.947 22.16C105.907 22.16 105.081 22.4933 104.467 23.16C103.854 23.8133 103.547 24.68 103.547 25.76V42.24C103.547 43.32 103.854 44.1933 104.467 44.86C105.081 45.5133 105.907 45.84 106.947 45.84ZM126.443 49.64C124.27 49.64 122.523 48.96 121.203 47.6C119.897 46.24 119.243 44.4533 119.243 42.24V41.04H123.043V42.24C123.043 43.32 123.35 44.1933 123.963 44.86C124.577 45.5133 125.403 45.84 126.443 45.84C127.483 45.84 128.31 45.5133 128.923 44.86C129.537 44.1933 129.843 43.32 129.843 42.24V39.72C129.843 39.1067 129.823 38.6267 129.783 38.28C129.743 37.92 129.623 37.6333 129.423 37.42C129.223 37.2067 128.89 37.0067 128.423 36.82C127.957 36.62 127.297 36.3867 126.443 36.12C124.643 35.5467 123.25 35.0667 122.263 34.68C121.277 34.28 120.57 33.86 120.143 33.42C119.717 32.9667 119.457 32.38 119.363 31.66C119.283 30.94 119.243 29.96 119.243 28.72V25.76C119.243 23.5333 119.897 21.7467 121.203 20.4C122.523 19.04 124.27 18.36 126.443 18.36C128.63 18.36 130.377 19.04 131.683 20.4C132.99 21.7467 133.643 23.5333 133.643 25.76V26.96H129.843V25.76C129.843 24.68 129.537 23.8133 128.923 23.16C128.31 22.4933 127.483 22.16 126.443 22.16C125.403 22.16 124.577 22.4933 123.963 23.16C123.35 23.8133 123.043 24.68 123.043 25.76V28.72C123.043 29.32 123.063 29.8 123.103 30.16C123.157 30.5067 123.277 30.7933 123.463 31.02C123.663 31.2333 123.997 31.4333 124.463 31.62C124.943 31.8067 125.603 32.04 126.443 32.32C128.243 32.8933 129.637 33.3733 130.623 33.76C131.61 34.1467 132.317 34.5667 132.743 35.02C133.17 35.46 133.423 36.04 133.503 36.76C133.597 37.48 133.643 38.4667 133.643 39.72V42.24C133.643 44.4533 132.99 46.24 131.683 47.6C130.377 48.96 128.63 49.64 126.443 49.64ZM151.333 19V22.8H142.933V31.8H150.253V35.6H142.933V45.2H151.333V49H139.133V19H151.333Z" fill="black"/>
</svg>
