<svg width="184" height="70" viewBox="0 0 184 70" fill="none" xmlns="http://www.w3.org/2000/svg">
<rect x="1.5" y="1.5" width="181" height="67" fill="white" stroke="black" stroke-width="3"/>
<path d="M27.42 49.64C25.2467 49.64 23.5 48.96 22.18 47.6C20.8733 46.24 20.22 44.4533 20.22 42.24V41.04H24.02V42.24C24.02 43.32 24.3267 44.1933 24.94 44.86C25.5533 45.5133 26.38 45.84 27.42 45.84C28.46 45.84 29.2867 45.5133 29.9 44.86C30.5133 44.1933 30.82 43.32 30.82 42.24V39.72C30.82 39.1067 30.8 38.6267 30.76 38.28C30.72 37.92 30.6 37.6333 30.4 37.42C30.2 37.2067 29.8667 37.0067 29.4 36.82C28.9333 36.62 28.2733 36.3867 27.42 36.12C25.62 35.5467 24.2267 35.0667 23.24 34.68C22.2533 34.28 21.5467 33.86 21.12 33.42C20.6933 32.9667 20.4333 32.38 20.34 31.66C20.26 30.94 20.22 29.96 20.22 28.72V25.76C20.22 23.5333 20.8733 21.7467 22.18 20.4C23.5 19.04 25.2467 18.36 27.42 18.36C29.6067 18.36 31.3533 19.04 32.66 20.4C33.9667 21.7467 34.62 23.5333 34.62 25.76V26.96H30.82V25.76C30.82 24.68 30.5133 23.8133 29.9 23.16C29.2867 22.4933 28.46 22.16 27.42 22.16C26.38 22.16 25.5533 22.4933 24.94 23.16C24.3267 23.8133 24.02 24.68 24.02 25.76V28.72C24.02 29.32 24.04 29.8 24.08 30.16C24.1333 30.5067 24.2533 30.7933 24.44 31.02C24.64 31.2333 24.9733 31.4333 25.44 31.62C25.92 31.8067 26.58 32.04 27.42 32.32C29.22 32.8933 30.6133 33.3733 31.6 33.76C32.5867 34.1467 33.2933 34.5667 33.72 35.02C34.1467 35.46 34.4 36.04 34.48 36.76C34.5733 37.48 34.62 38.4667 34.62 39.72V42.24C34.62 44.4533 33.9667 46.24 32.66 47.6C31.3533 48.96 29.6067 49.64 27.42 49.64ZM54.0691 41.04V42.24C54.0691 44.4533 53.4157 46.24 52.1091 47.6C50.8024 48.96 49.0557 49.64 46.8691 49.64C44.6957 49.64 42.9491 48.96 41.6291 47.6C40.3224 46.24 39.6691 44.4533 39.6691 42.24V25.76C39.6691 23.5333 40.3224 21.7467 41.6291 20.4C42.9491 19.04 44.6957 18.36 46.8691 18.36C49.0557 18.36 50.8024 19.04 52.1091 20.4C53.4157 21.7467 54.0691 23.5333 54.0691 25.76V26.96H50.2691V25.76C50.2691 24.68 49.9624 23.8133 49.3491 23.16C48.7357 22.4933 47.9091 22.16 46.8691 22.16C45.8291 22.16 45.0024 22.4933 44.3891 23.16C43.7757 23.8133 43.4691 24.68 43.4691 25.76V42.24C43.4691 43.32 43.7757 44.1933 44.3891 44.86C45.0024 45.5133 45.8291 45.84 46.8691 45.84C47.9091 45.84 48.7357 45.5133 49.3491 44.86C49.9624 44.1933 50.2691 43.32 50.2691 42.24V41.04H54.0691ZM62.8544 49H59.0544V19H62.8544V49ZM69.4841 49V19H72.5841L81.1241 41.78L80.0841 41.86V19H83.6841V49H80.5841L72.0441 26.22L73.0841 26.14V49H69.4841ZM102.504 19V22.8H94.1044V31.8H101.424V35.6H94.1044V45.2H102.504V49H90.3044V19H102.504ZM121.491 41.04V42.24C121.491 44.4533 120.838 46.24 119.531 47.6C118.224 48.96 116.478 49.64 114.291 49.64C112.118 49.64 110.371 48.96 109.051 47.6C107.744 46.24 107.091 44.4533 107.091 42.24V25.76C107.091 23.5333 107.744 21.7467 109.051 20.4C110.371 19.04 112.118 18.36 114.291 18.36C116.478 18.36 118.224 19.04 119.531 20.4C120.838 21.7467 121.491 23.5333 121.491 25.76V26.96H117.691V25.76C117.691 24.68 117.384 23.8133 116.771 23.16C116.158 22.4933 115.331 22.16 114.291 22.16C113.251 22.16 112.424 22.4933 111.811 23.16C111.198 23.8133 110.891 24.68 110.891 25.76V42.24C110.891 43.32 111.198 44.1933 111.811 44.86C112.424 45.5133 113.251 45.84 114.291 45.84C115.331 45.84 116.158 45.5133 116.771 44.86C117.384 44.1933 117.691 43.32 117.691 42.24V41.04H121.491ZM138.676 19V22.8H130.276V31.8H137.596V35.6H130.276V45.2H138.676V49H126.476V19H138.676ZM154.223 49C152.823 45.48 151.703 43.48 146.783 36.72C143.623 32.4 142.423 29.56 142.423 26.64C142.423 23.12 145.463 20.24 148.983 20.24C151.463 20.24 153.743 21.52 155.143 24.12C156.583 21.52 158.863 20.24 161.383 20.24C164.823 20.24 167.943 23.12 167.943 26.64C167.943 29.48 166.943 32.16 163.583 36.76C158.623 43.56 157.423 45.68 156.103 49H154.223ZM155.143 45.52C156.143 43.48 157.903 40.8 160.263 37.56C162.623 34.32 164.103 31.96 164.743 30.56C165.383 29.16 165.703 27.84 165.703 26.64C165.703 24.36 163.703 22.48 161.383 22.48C159.063 22.48 157.103 24.48 156.183 27.8H154.143C153.143 24.2 151.183 22.48 148.983 22.48C146.703 22.48 144.663 24.36 144.663 26.64C144.663 27.8 144.983 29.08 145.583 30.48C146.183 31.88 147.663 34.16 149.983 37.32C152.303 40.44 154.023 43.2 155.143 45.52Z" fill="black"/>
</svg>
