<svg width="206" height="162" viewBox="0 0 206 162" fill="none" xmlns="http://www.w3.org/2000/svg">
<rect x="1.5" y="1.5" width="203" height="159" fill="white" stroke="black" stroke-width="3"/>
<rect x="27.5" y="68.5" width="151" height="77" fill="white" stroke="black" stroke-width="3"/>
<path d="M24.44 49L20.4 19H24.3L27.14 42.14L26.68 42.12L30.58 19H33.82L37.72 42.12L37.26 42.14L40.1 19H44L39.96 49H35.88L31.92 27.66H32.54L28.52 49H24.44ZM48.7263 49V19H52.5263V34.2H58.7263V19H62.5263V49H58.7263V38H52.5263V49H48.7263ZM73.2759 49V34.2L66.2959 19H70.1959L75.7959 31.68H74.5559L80.0959 19H83.9959L77.0759 34.2V49H73.2759ZM96.695 49V19H103.695C105.882 19 107.628 19.68 108.935 21.04C110.242 22.3867 110.895 24.1733 110.895 26.4V41.6C110.895 43.8133 110.242 45.6 108.935 46.96C107.628 48.32 105.882 49 103.695 49H96.695ZM100.495 45.2H103.695C104.735 45.2 105.562 44.8733 106.175 44.22C106.788 43.5533 107.095 42.68 107.095 41.6V26.4C107.095 25.32 106.788 24.4533 106.175 23.8C105.562 23.1333 104.735 22.8 103.695 22.8H100.495V45.2ZM123.689 49.64C121.516 49.64 119.769 48.96 118.449 47.6C117.143 46.24 116.489 44.4533 116.489 42.24V25.76C116.489 23.5333 117.143 21.7467 118.449 20.4C119.769 19.04 121.516 18.36 123.689 18.36C125.876 18.36 127.623 19.04 128.929 20.4C130.236 21.7467 130.889 23.5333 130.889 25.76V42.24C130.889 44.4533 130.236 46.24 128.929 47.6C127.623 48.96 125.876 49.64 123.689 49.64ZM123.689 45.84C124.729 45.84 125.556 45.5133 126.169 44.86C126.783 44.1933 127.089 43.32 127.089 42.24V25.76C127.089 24.68 126.783 23.8133 126.169 23.16C125.556 22.4933 124.729 22.16 123.689 22.16C122.649 22.16 121.823 22.4933 121.209 23.16C120.596 23.8133 120.289 24.68 120.289 25.76V42.24C120.289 43.32 120.596 44.1933 121.209 44.86C121.823 45.5133 122.649 45.84 123.689 45.84ZM148.112 49L144.072 19H147.972L150.812 42.14L150.352 42.12L154.252 19H157.492L161.392 42.12L160.932 42.14L163.772 19H167.672L163.632 49H159.552L155.592 27.66H156.212L152.192 49H148.112ZM184.598 19V22.8H176.198V31.8H183.518V35.6H176.198V45.2H184.598V49H172.398V19H184.598Z" fill="black"/>
<path d="M47.312 130V82H52.272L65.936 118.448L64.272 118.576V82H70.032V130H65.072L51.408 93.552L53.072 93.424V130H47.312ZM100.145 82V88.08H86.7045V102.48H98.4165V108.56H86.7045V123.92H100.145V130H80.6245V82H100.145ZM127.707 82V88.08H114.267V102.48H125.979V108.56H114.267V123.92H127.707V130H108.187V82H127.707ZM135.75 130V82H146.95C150.448 82 153.243 83.088 155.334 85.264C157.424 87.4187 158.47 90.2773 158.47 93.84V118.16C158.47 121.701 157.424 124.56 155.334 126.736C153.243 128.912 150.448 130 146.95 130H135.75ZM141.83 123.92H146.95C148.614 123.92 149.936 123.397 150.918 122.352C151.899 121.285 152.39 119.888 152.39 118.16V93.84C152.39 92.112 151.899 90.7253 150.918 89.68C149.936 88.6133 148.614 88.08 146.95 88.08H141.83V123.92Z" fill="black"/>
</svg>
