<svg width="278" height="154" viewBox="0 0 278 154" fill="none" xmlns="http://www.w3.org/2000/svg">
<path d="M164.138 41.8321L276.5 41.8321L276.5 152.499L1.5 152.499L1.50001 41.8321L114.601 41.8321L115.434 41.8321L115.874 41.1255L139.72 2.86525L162.855 41.1085L163.293 41.8321L164.138 41.8321Z" fill="white" stroke="black" stroke-width="3"/>
<path d="M29.9841 90.9999V54.9999H34.4001L42.2241 84.8799H41.1681L48.9921 54.9999H53.4081V90.9999H49.0881V67.3359L49.6161 67.4319L43.3281 90.9999H40.0641L33.7761 67.4319L34.3041 67.3359V90.9999H29.9841ZM66.3103 91.5999C64.0063 91.5999 62.2223 90.9359 60.9583 89.6079C59.7103 88.2639 59.0863 86.5599 59.0863 84.4959C59.0863 83.2639 59.2943 82.2319 59.7103 81.3999C60.1423 80.5519 60.6943 79.8639 61.3663 79.3359C62.0543 78.7919 62.7903 78.3439 63.5743 77.9919C64.5023 77.5759 65.4463 77.2399 66.4063 76.9839C67.3823 76.7119 68.2783 76.4399 69.0943 76.1679C69.9103 75.8799 70.5663 75.5119 71.0623 75.0639C71.5743 74.5999 71.8303 73.9679 71.8303 73.1679V72.5919C71.8303 71.3759 71.4703 70.3999 70.7503 69.6639C70.0463 68.9279 69.0783 68.5599 67.8463 68.5599C66.6303 68.5599 65.6703 68.9279 64.9663 69.6639C64.2623 70.3999 63.9103 71.3759 63.9103 72.5919V73.5519H59.5903V72.8319C59.5903 70.2559 60.3423 68.1839 61.8463 66.6159C63.3663 65.0319 65.3663 64.2399 67.8463 64.2399C69.5103 64.2399 70.9583 64.5999 72.1903 65.3199C73.4383 66.0239 74.4063 67.0239 75.0943 68.3199C75.7983 69.6159 76.1503 71.1199 76.1503 72.8319V90.9999H71.8303V87.2319L72.5743 88.1919C72.0143 89.2799 71.1983 90.1199 70.1263 90.7119C69.0703 91.3039 67.7983 91.5999 66.3103 91.5999ZM67.4623 87.5439C68.7743 87.5439 69.8303 87.1759 70.6303 86.4399C71.4303 85.6879 71.8303 84.5679 71.8303 83.0799V78.7839C71.0463 79.3119 70.1503 79.6799 69.1423 79.8879C68.1503 80.0959 67.1823 80.3759 66.2383 80.7279C65.3903 81.0479 64.7023 81.4639 64.1743 81.9759C63.6623 82.4879 63.4063 83.1919 63.4063 84.0879C63.4063 85.0639 63.7503 85.8879 64.4383 86.5599C65.1423 87.2159 66.1503 87.5439 67.4623 87.5439ZM84.2064 99.6399L86.5344 91.3599L79.0704 64.8399H83.7744L89.3664 85.8159H88.3824L93.8544 64.8399H98.5824L88.7184 99.6399H84.2064ZM111.443 91.5999C110.083 91.5999 108.923 91.3199 107.963 90.7599C107.003 90.1839 106.243 89.3919 105.683 88.3839L106.427 87.3999V90.9999H102.107V54.9999H106.427V68.4399L105.683 67.4559C106.243 66.4319 107.003 65.6399 107.963 65.0799C108.923 64.5199 110.083 64.2399 111.443 64.2399C112.755 64.2399 113.947 64.5279 115.019 65.1039C116.107 65.6799 116.979 66.5839 117.635 67.8159C118.291 69.0479 118.619 70.6399 118.619 72.5919V83.2239C118.619 85.1759 118.291 86.7679 117.635 87.9999C116.979 89.2319 116.107 90.1439 115.019 90.7359C113.947 91.3119 112.755 91.5999 111.443 91.5999ZM110.339 87.2799C111.587 87.2799 112.555 86.9039 113.243 86.1519C113.947 85.3999 114.299 84.4239 114.299 83.2239V72.5919C114.299 71.3759 113.947 70.3999 113.243 69.6639C112.555 68.9279 111.587 68.5599 110.339 68.5599C109.107 68.5599 108.147 68.9279 107.459 69.6639C106.771 70.3999 106.427 71.3759 106.427 72.5919V83.2479C106.427 84.4479 106.771 85.4239 107.459 86.1759C108.147 86.9119 109.107 87.2799 110.339 87.2799ZM132.002 91.5999C130.354 91.5999 128.906 91.2399 127.658 90.5199C126.41 89.7999 125.434 88.7919 124.73 87.4959C124.042 86.1999 123.698 84.6959 123.698 82.9839V72.8319C123.698 71.1199 124.042 69.6159 124.73 68.3199C125.434 67.0239 126.41 66.0239 127.658 65.3199C128.906 64.5999 130.354 64.2399 132.002 64.2399C134.498 64.2399 136.498 65.0319 138.002 66.6159C139.506 68.1839 140.258 70.2559 140.258 72.8319V78.7839H127.298V74.7039H135.938V72.5919C135.938 71.3759 135.586 70.3999 134.882 69.6639C134.194 68.9279 133.234 68.5599 132.002 68.5599C130.786 68.5599 129.818 68.9279 129.098 69.6639C128.378 70.3999 128.018 71.3759 128.018 72.5919V83.2239C128.018 84.4239 128.378 85.3999 129.098 86.1519C129.818 86.9039 130.786 87.2799 132.002 87.2799C133.234 87.2799 134.194 86.9039 134.882 86.1519C135.586 85.3999 135.938 84.4239 135.938 83.2239V82.5039H140.258V82.9839C140.258 85.5599 139.506 87.6399 138.002 89.2239C136.498 90.8079 134.498 91.5999 132.002 91.5999ZM163.562 91.5999C161.034 91.5999 159.018 90.8479 157.514 89.3439C156.01 87.8399 155.258 85.8639 155.258 83.4159V82.6959H159.578V83.6799C159.578 84.7519 159.93 85.6239 160.634 86.2959C161.354 86.9519 162.314 87.2799 163.514 87.2799C164.666 87.2799 165.578 86.9439 166.25 86.2719C166.922 85.5999 167.258 84.6399 167.258 83.3919C167.258 82.6079 167.114 81.9999 166.826 81.5679C166.554 81.1359 166.13 80.7999 165.554 80.5599C164.994 80.3199 164.29 80.1119 163.442 79.9359C161.81 79.5679 160.378 79.1759 159.146 78.7599C157.93 78.3439 156.978 77.6799 156.29 76.7679C155.602 75.8399 155.258 74.4639 155.258 72.6399C155.258 69.9359 155.994 67.8639 157.466 66.4239C158.954 64.9679 160.914 64.2399 163.346 64.2399C165.89 64.2399 167.898 64.9839 169.37 66.4719C170.842 67.9599 171.578 69.9359 171.578 72.3999V73.0959H167.258V72.1599C167.258 71.0559 166.914 70.1839 166.226 69.5439C165.538 68.8879 164.602 68.5599 163.418 68.5599C162.25 68.5599 161.314 68.8959 160.61 69.5679C159.922 70.2239 159.578 71.1839 159.578 72.4479C159.578 73.2159 159.722 73.8159 160.01 74.2479C160.298 74.6799 160.73 75.0159 161.306 75.2559C161.882 75.4799 162.594 75.6879 163.442 75.8799C165.042 76.2159 166.45 76.5999 167.666 77.0319C168.882 77.4479 169.834 78.1199 170.522 79.0479C171.226 79.9599 171.578 81.3439 171.578 83.1999C171.578 85.8879 170.85 87.9599 169.394 89.4159C167.938 90.8719 165.994 91.5999 163.562 91.5999ZM176.779 90.9999V54.9999H181.099V68.4639L180.355 67.5039C180.931 66.4479 181.699 65.6399 182.659 65.0799C183.635 64.5039 184.803 64.2159 186.163 64.2159C187.427 64.2159 188.579 64.4879 189.619 65.0319C190.675 65.5759 191.515 66.4159 192.139 67.5519C192.779 68.6719 193.099 70.1039 193.099 71.8479V90.9999H188.779V72.5679C188.779 71.3519 188.435 70.3759 187.747 69.6399C187.059 68.9039 186.131 68.5359 184.963 68.5359C183.779 68.5359 182.835 68.9039 182.131 69.6399C181.443 70.3759 181.099 71.3519 181.099 72.5679V90.9999H176.779ZM206.815 91.5999C205.167 91.5999 203.719 91.2399 202.471 90.5199C201.223 89.7999 200.247 88.7919 199.543 87.4959C198.855 86.1999 198.511 84.6959 198.511 82.9839V72.8319C198.511 71.1199 198.855 69.6159 199.543 68.3199C200.247 67.0239 201.223 66.0239 202.471 65.3199C203.719 64.5999 205.167 64.2399 206.815 64.2399C209.311 64.2399 211.311 65.0319 212.815 66.6159C214.319 68.1839 215.071 70.2559 215.071 72.8319V78.7839H202.111V74.7039H210.751V72.5919C210.751 71.3759 210.399 70.3999 209.695 69.6639C209.007 68.9279 208.047 68.5599 206.815 68.5599C205.599 68.5599 204.631 68.9279 203.911 69.6639C203.191 70.3999 202.831 71.3759 202.831 72.5919V83.2239C202.831 84.4239 203.191 85.3999 203.911 86.1519C204.631 86.9039 205.599 87.2799 206.815 87.2799C208.047 87.2799 209.007 86.9039 209.695 86.1519C210.399 85.3999 210.751 84.4239 210.751 83.2239V82.5039H215.071V82.9839C215.071 85.5599 214.319 87.6399 212.815 89.2239C211.311 90.8079 209.311 91.5999 206.815 91.5999ZM227.687 91.5999C225.159 91.5999 223.143 90.8479 221.639 89.3439C220.135 87.8399 219.383 85.8639 219.383 83.4159V82.6959H223.703V83.6799C223.703 84.7519 224.055 85.6239 224.759 86.2959C225.479 86.9519 226.439 87.2799 227.639 87.2799C228.791 87.2799 229.703 86.9439 230.375 86.2719C231.047 85.5999 231.383 84.6399 231.383 83.3919C231.383 82.6079 231.239 81.9999 230.951 81.5679C230.679 81.1359 230.255 80.7999 229.679 80.5599C229.119 80.3199 228.415 80.1119 227.567 79.9359C225.935 79.5679 224.503 79.1759 223.271 78.7599C222.055 78.3439 221.103 77.6799 220.415 76.7679C219.727 75.8399 219.383 74.4639 219.383 72.6399C219.383 69.9359 220.119 67.8639 221.591 66.4239C223.079 64.9679 225.039 64.2399 227.471 64.2399C230.015 64.2399 232.023 64.9839 233.495 66.4719C234.967 67.9599 235.703 69.9359 235.703 72.3999V73.0959H231.383V72.1599C231.383 71.0559 231.039 70.1839 230.351 69.5439C229.663 68.8879 228.727 68.5599 227.543 68.5599C226.375 68.5599 225.439 68.8959 224.735 69.5679C224.047 70.2239 223.703 71.1839 223.703 72.4479C223.703 73.2159 223.847 73.8159 224.135 74.2479C224.423 74.6799 224.855 75.0159 225.431 75.2559C226.007 75.4799 226.719 75.6879 227.567 75.8799C229.167 76.2159 230.575 76.5999 231.791 77.0319C233.007 77.4479 233.959 78.1199 234.647 79.0479C235.351 79.9599 235.703 81.3439 235.703 83.1999C235.703 85.8879 234.975 87.9599 233.519 89.4159C232.063 90.8719 230.119 91.5999 227.687 91.5999ZM38.5521 131.6C37.1921 131.6 36.0321 131.32 35.0721 130.76C34.1121 130.184 33.3521 129.392 32.7921 128.384L33.5361 127.4V131H29.2161V94.9999H33.5361V108.44L32.7921 107.456C33.3521 106.432 34.1121 105.64 35.0721 105.08C36.0321 104.52 37.1921 104.24 38.5521 104.24C39.8641 104.24 41.0561 104.528 42.1281 105.104C43.2161 105.68 44.0881 106.584 44.7441 107.816C45.4001 109.048 45.7281 110.64 45.7281 112.592V123.224C45.7281 125.176 45.4001 126.768 44.7441 128C44.0881 129.232 43.2161 130.144 42.1281 130.736C41.0561 131.312 39.8641 131.6 38.5521 131.6ZM37.4481 127.28C38.6961 127.28 39.6641 126.904 40.3521 126.152C41.0561 125.4 41.4081 124.424 41.4081 123.224V112.592C41.4081 111.376 41.0561 110.4 40.3521 109.664C39.6641 108.928 38.6961 108.56 37.4481 108.56C36.2161 108.56 35.2561 108.928 34.5681 109.664C33.8801 110.4 33.5361 111.376 33.5361 112.592V123.248C33.5361 124.448 33.8801 125.424 34.5681 126.176C35.2561 126.912 36.2161 127.28 37.4481 127.28ZM59.1114 131.6C57.4634 131.6 56.0154 131.24 54.7674 130.52C53.5194 129.8 52.5434 128.792 51.8394 127.496C51.1514 126.2 50.8074 124.696 50.8074 122.984V112.832C50.8074 111.12 51.1514 109.616 51.8394 108.32C52.5434 107.024 53.5194 106.024 54.7674 105.32C56.0154 104.6 57.4634 104.24 59.1114 104.24C61.6074 104.24 63.6074 105.032 65.1114 106.616C66.6154 108.184 67.3674 110.256 67.3674 112.832V122.984C67.3674 125.56 66.6154 127.64 65.1114 129.224C63.6074 130.808 61.6074 131.6 59.1114 131.6ZM59.1114 127.28C60.3434 127.28 61.3034 126.904 61.9914 126.152C62.6954 125.4 63.0474 124.424 63.0474 123.224V112.592C63.0474 111.376 62.6954 110.4 61.9914 109.664C61.3034 108.928 60.3434 108.56 59.1114 108.56C57.8954 108.56 56.9274 108.928 56.2074 109.664C55.4874 110.4 55.1274 111.376 55.1274 112.592V123.224C55.1274 124.424 55.4874 125.4 56.2074 126.152C56.9274 126.904 57.8954 127.28 59.1114 127.28ZM73.0442 131V104.84H77.3642V108.776L76.5962 107.864C77.1722 106.76 77.9562 105.928 78.9482 105.368C79.9562 104.808 81.1082 104.528 82.4042 104.528H83.5562V108.848H81.2282C80.0442 108.848 79.1002 109.192 78.3962 109.88C77.7082 110.568 77.3642 111.52 77.3642 112.736V131H73.0442ZM86.9192 131V104.84H91.2392V108.56L90.4712 107.696C91.0472 106.56 91.8312 105.704 92.8232 105.128C93.8312 104.536 94.9912 104.24 96.3032 104.24C98.4152 104.24 100.095 104.984 101.343 106.472C102.607 107.96 103.239 110 103.239 112.592V131H98.9192V112.592C98.9192 111.376 98.5752 110.4 97.8872 109.664C97.1992 108.928 96.2712 108.56 95.1032 108.56C93.9192 108.56 92.9752 108.928 92.2712 109.664C91.5832 110.4 91.2392 111.376 91.2392 112.592V131H86.9192ZM122.22 131L117.9 104.84H122.388L125.124 126.008L124.476 125.984L128.508 104.84H132.444L136.476 125.984L135.828 126.008L138.54 104.84H143.052L138.732 131H134.052L130.092 111.752H130.932L126.9 131H122.22ZM147.341 131V104.84H151.661V131H147.341ZM147.341 102.272V96.4399H151.661V102.272H147.341ZM167.867 131.312C165.371 131.312 163.363 130.544 161.843 129.008C160.339 127.456 159.587 125.352 159.587 122.696V108.848H155.027V104.816H159.587V98.3599H163.907V104.816H169.907V108.848H163.907V122.696C163.907 123.992 164.267 125.032 164.987 125.816C165.707 126.6 166.667 126.992 167.867 126.992H169.907V131.312H167.867ZM174.2 131V94.9999H178.52V108.464L177.776 107.504C178.352 106.448 179.12 105.64 180.08 105.08C181.056 104.504 182.224 104.216 183.584 104.216C184.848 104.216 186 104.488 187.04 105.032C188.096 105.576 188.936 106.416 189.56 107.552C190.2 108.672 190.52 110.104 190.52 111.848V131H186.2V112.568C186.2 111.352 185.856 110.376 185.168 109.64C184.48 108.904 183.552 108.536 182.384 108.536C181.2 108.536 180.256 108.904 179.552 109.64C178.864 110.376 178.52 111.352 178.52 112.568V131H174.2ZM207.388 131V104.84H211.708V131H207.388ZM207.388 102.272V96.4399H211.708V102.272H207.388ZM227.914 131.312C225.418 131.312 223.41 130.544 221.89 129.008C220.386 127.456 219.634 125.352 219.634 122.696V108.848H215.074V104.816H219.634V98.3599H223.954V104.816H229.954V108.848H223.954V122.696C223.954 123.992 224.314 125.032 225.034 125.816C225.754 126.6 226.714 126.992 227.914 126.992H229.954V131.312H227.914ZM238.399 122.624V121.112C238.399 119.544 238.631 118.208 239.095 117.104C239.559 115.984 240.127 115 240.799 114.152C241.487 113.304 242.167 112.512 242.839 111.776C243.527 111.04 244.095 110.288 244.543 109.52C245.007 108.752 245.239 107.888 245.239 106.928V103.112C245.239 101.816 244.871 100.776 244.135 99.9919C243.399 99.1919 242.407 98.7919 241.159 98.7919C239.911 98.7919 238.919 99.1919 238.183 99.9919C237.447 100.776 237.079 101.816 237.079 103.112V104.552H232.519V103.112C232.519 100.44 233.303 98.2959 234.871 96.6799C236.455 95.0479 238.551 94.2319 241.159 94.2319C243.783 94.2319 245.879 95.0479 247.447 96.6799C249.015 98.3119 249.799 100.456 249.799 103.112V106.928C249.799 108.208 249.567 109.336 249.103 110.312C248.655 111.288 248.087 112.192 247.399 113.024C246.727 113.84 246.047 114.648 245.359 115.448C244.671 116.248 244.095 117.104 243.631 118.016C243.183 118.928 242.959 119.96 242.959 121.112V122.624H238.399ZM238.399 131V124.76H242.959V131H238.399Z" fill="black"/>
</svg>
