<svg width="319" height="70" viewBox="0 0 319 70" fill="none" xmlns="http://www.w3.org/2000/svg">
<rect x="1.5" y="1.5" width="316" height="67" fill="white" stroke="black" stroke-width="3"/>
<path d="M13 11.6388H20.3965L27.5185 31.7605H27.8235L34.9455 11.6388H42.3419L30.9498 41.8441V58.3612H24.3921V41.8441L13 11.6388Z" fill="black"/>
<path d="M45.9487 58.3612V11.6388H66.9944V19.7833H52.5521V30.9163H65.9116V39.0608H52.5521V50.2167H67.0554V58.3612H45.9487Z" fill="black"/>
<path d="M79.2748 58.3612L70.338 11.6388H77.5515L82.7214 44.1027H82.9807L88.6844 11.6388H94.8608L100.549 44.1711H100.824L105.994 11.6388H113.207L104.27 58.3612H97.8347L91.887 27.8137H91.643L85.7105 58.3612H79.2748Z" fill="black"/>
<path d="M143.681 35C143.681 40.0951 143.036 44.4297 141.745 48.0038C140.464 51.5779 138.715 54.308 136.498 56.1939C134.292 58.0646 131.811 59 129.056 59C126.281 59 123.79 58.057 121.583 56.1711C119.377 54.2852 117.634 51.5551 116.353 47.981C115.072 44.4068 114.431 40.0798 114.431 35C114.431 29.9049 115.072 25.5703 116.353 21.9962C117.634 18.4221 119.377 15.6996 121.583 13.8289C123.79 11.943 126.281 11 129.056 11C131.811 11 134.292 11.943 136.498 13.8289C138.715 15.6996 140.464 18.4221 141.745 21.9962C143.036 25.5703 143.681 29.9049 143.681 35ZM136.986 35C136.986 31.6996 136.656 28.9163 135.995 26.6502C135.344 24.384 134.424 22.6654 133.235 21.4943C132.045 20.3232 130.652 19.7376 129.056 19.7376C127.46 19.7376 126.067 20.3232 124.878 21.4943C123.688 22.6654 122.763 24.384 122.102 26.6502C121.451 28.9163 121.126 31.6996 121.126 35C121.126 38.3004 121.451 41.0836 122.102 43.3498C122.763 45.616 123.688 47.3346 124.878 48.5057C126.067 49.6768 127.46 50.2624 129.056 50.2624C130.652 50.2624 132.045 49.6768 133.235 48.5057C134.424 47.3346 135.344 45.616 135.995 43.3498C136.656 41.0836 136.986 38.3004 136.986 35Z" fill="black"/>
<path d="M174.697 11.6388V58.3612H168.993L155.405 28.9544H155.176V58.3612H148.573V11.6388H154.368L167.85 41.0228H168.124V11.6388H174.697Z" fill="black"/>
<path d="M202.598 11.6388H209.125V44.2167C209.125 47.2281 208.673 49.8441 207.768 52.0646C206.873 54.2852 205.628 55.9962 204.031 57.1977C202.435 58.3992 200.58 59 198.465 59C196.584 59 194.876 58.5057 193.341 57.5171C191.816 56.5133 190.606 54.9924 189.711 52.9544C188.817 50.9011 188.374 48.3232 188.384 45.2205H194.957C194.978 46.4525 195.145 47.5095 195.461 48.3916C195.786 49.2586 196.228 49.9278 196.787 50.3992C197.357 50.8555 198.028 51.0836 198.801 51.0836C199.614 51.0836 200.3 50.8251 200.859 50.308C201.429 49.7757 201.861 49 202.156 47.981C202.45 46.962 202.598 45.7072 202.598 44.2167V11.6388Z" fill="black"/>
<path d="M219.968 58.3612H212.892L223.674 11.6388H232.184L242.951 58.3612H235.874L228.051 22.3156H227.807L219.968 58.3612ZM219.526 39.9962H236.24V47.7072H219.526V39.9962Z" fill="black"/>
<path d="M272.834 11.6388V58.3612H267.13L253.542 28.9544H253.313V58.3612H246.71V11.6388H252.505L265.987 41.0228H266.261V11.6388H272.834Z" fill="black"/>
<path d="M299 26.7414C298.787 25.6312 298.487 24.6502 298.1 23.7985C297.714 22.9316 297.241 22.2015 296.682 21.6084C296.133 21 295.503 20.5361 294.791 20.2167C294.089 19.8973 293.312 19.7376 292.458 19.7376C290.861 19.7376 289.458 20.3308 288.248 21.5171C287.049 22.7034 286.113 24.4297 285.442 26.6958C284.771 28.9468 284.436 31.6996 284.436 34.9544C284.436 38.2091 284.766 40.9772 285.427 43.2586C286.088 45.5399 287.023 47.2814 288.233 48.4829C289.443 49.6692 290.872 50.2624 292.519 50.2624C294.013 50.2624 295.289 49.8669 296.346 49.076C297.414 48.27 298.227 47.1369 298.787 45.6768C299.356 44.2167 299.641 42.4905 299.641 40.4981L300.983 40.7947H292.93V33.3574H306V39.2433C306 43.3498 305.42 46.8783 304.261 49.8289C303.102 52.7643 301.506 55.0304 299.473 56.6274C297.439 58.2091 295.111 59 292.488 59C289.56 59 286.988 58.0342 284.771 56.1027C282.555 54.1559 280.827 51.3954 279.586 47.8213C278.356 44.2319 277.741 39.9734 277.741 35.0456C277.741 31.2586 278.107 27.8821 278.839 24.9163C279.581 21.9354 280.618 19.4106 281.95 17.3422C283.282 15.2738 284.832 13.6996 286.601 12.6198C288.37 11.5399 290.287 11 292.351 11C294.12 11 295.767 11.3878 297.292 12.1635C298.817 12.924 300.169 14.0038 301.349 15.403C302.538 16.8023 303.509 18.4677 304.261 20.3992C305.014 22.3156 305.497 24.4297 305.71 26.7414H299Z" fill="black"/>
</svg>
